<svg width="936" height="887" viewBox="0 0 702 665.25" xmlns="http://www.w3.org/2000/svg" xmlns:xlink="http://www.w3.org/1999/xlink">
<g id="graph0" class="graph" transform="translate(2.1419907126633344,439.67098259692887) scale(0.5354976781658194)">
<title>finite_state_machine</title>
<polygon fill="white" stroke="transparent" points="-4,4 -4,-403.8 1306.93,-403.8 1306.93,4 -4,4"/>
<!-- 0 -->
<g id="node1" class="node">
<title>0</title>
</g>
<!-- 1 -->
<g id="node3" class="node">
<title>1</title>
<ellipse fill="none" stroke="black" cx="109" cy="-338" rx="18" ry="18"/>
<text text-anchor="middle" x="109" y="-333.8" font-family="Helvetica,Arial,sans-serif" font-size="14.00">1</text>
</g>
<!-- 0&#45;&gt;1 -->
<g id="edge1" class="edge">
<title>0-&gt;1</title>
<path fill="none" stroke="black" d="M54.19,-338C62.65,-338 72.05,-338 80.6,-338"/>
<polygon fill="black" stroke="black" points="80.83,-341.5 90.83,-338 80.83,-334.5 80.83,-341.5"/>
</g>
<!-- 8 -->
<g id="node2" class="node">
<title>8</title>
<ellipse fill="none" stroke="black" cx="1280.93" cy="-338" rx="18" ry="18"/>
<ellipse fill="none" stroke="black" cx="1280.93" cy="-338" rx="22" ry="22"/>
<text text-anchor="middle" x="1280.93" y="-333.8" font-family="Helvetica,Arial,sans-serif" font-size="14.00">8</text>
</g>
<!-- 2 -->
<g id="node4" class="node">
<title>2</title>
<ellipse fill="none" stroke="black" cx="187.72" cy="-338" rx="18" ry="18"/>
<text text-anchor="middle" x="187.72" y="-333.8" font-family="Helvetica,Arial,sans-serif" font-size="14.00">2</text>
</g>
<!-- 1&#45;&gt;2 -->
<g id="edge2" class="edge">
<title>1-&gt;2</title>
<path fill="none" stroke="black" d="M127.03,-338C136.5,-338 148.51,-338 159.27,-338"/>
<polygon fill="black" stroke="black" points="159.48,-341.5 169.48,-338 159.48,-334.5 159.48,-341.5"/>
<text text-anchor="middle" x="148.36" y="-342.2" font-family="Helvetica,Arial,sans-serif" font-size="14.00">{</text>
</g>
<!-- 2&#45;&gt;8 -->
<g id="edge4" class="edge">
<title>2-&gt;8</title>
<path fill="none" stroke="black" d="M200.8,-350.77C214.75,-364.08 239.05,-383 264.43,-383 264.43,-383 264.43,-383 1199.21,-383 1220.47,-383 1241.34,-370.95 1256.53,-359.32"/>
<polygon fill="black" stroke="black" points="1258.79,-362 1264.35,-352.98 1254.38,-356.56 1258.79,-362"/>
<text text-anchor="middle" x="723.86" y="-387.2" font-family="Helvetica,Arial,sans-serif" font-size="14.00">}</text>
</g>
<!-- 3 -->
<g id="node5" class="node">
<title>3</title>
<ellipse fill="none" stroke="black" cx="265.43" cy="-250" rx="18" ry="18"/>
<text text-anchor="middle" x="265.43" y="-245.8" font-family="Helvetica,Arial,sans-serif" font-size="14.00">3</text>
</g>
<!-- 2&#45;&gt;3 -->
<g id="edge3" class="edge">
<title>2-&gt;3</title>
<path fill="none" stroke="black" d="M200.22,-324.63C212.52,-310.34 232.19,-287.47 246.52,-270.82"/>
<polygon fill="black" stroke="black" points="249.21,-273.07 253.07,-263.2 243.9,-268.5 249.21,-273.07"/>
<text text-anchor="middle" x="226.58" y="-301.2" font-family="Helvetica,Arial,sans-serif" font-size="14.00">"</text>
</g>
<!-- 3&#45;&gt;3 -->
<g id="edge5" class="edge">
<title>3-&gt;3</title>
<path fill="none" stroke="black" d="M258.7,-267.04C257.33,-276.86 259.57,-286 265.43,-286 269.1,-286 271.35,-282.43 272.19,-277.35"/>
<polygon fill="black" stroke="black" points="275.69,-277.03 272.17,-267.04 268.69,-277.04 275.69,-277.03"/>
<text text-anchor="middle" x="265.43" y="-290.2" font-family="Helvetica,Arial,sans-serif" font-size="14.00">[a-z0-9]</text>
</g>
<!-- 4 -->
<g id="node6" class="node">
<title>4</title>
<ellipse fill="none" stroke="black" cx="343.15" cy="-202" rx="18" ry="18"/>
<text text-anchor="middle" x="343.15" y="-197.8" font-family="Helvetica,Arial,sans-serif" font-size="14.00">4</text>
</g>
<!-- 3&#45;&gt;4 -->
<g id="edge6" class="edge">
<title>3-&gt;4</title>
<path fill="none" stroke="black" d="M281.03,-240.75C291.82,-233.91 306.73,-224.46 319.11,-216.6"/>
<polygon fill="black" stroke="black" points="321.02,-219.54 327.6,-211.23 317.28,-213.62 321.02,-219.54"/>
<text text-anchor="middle" x="304.29" y="-232.2" font-family="Helvetica,Arial,sans-serif" font-size="14.00">"</text>
</g>
<!-- 5 -->
<g id="node7" class="node">
<title>5</title>
<ellipse fill="none" stroke="black" cx="419.04" cy="-128" rx="18" ry="18"/>
<text text-anchor="middle" x="419.04" y="-123.8" font-family="Helvetica,Arial,sans-serif" font-size="14.00">5</text>
</g>
<!-- 4&#45;&gt;5 -->
<g id="edge7" class="edge">
<title>4-&gt;5</title>
<path fill="none" stroke="black" d="M356.68,-189.45C368.11,-178 385.18,-160.91 398.41,-147.66"/>
<polygon fill="black" stroke="black" points="401.1,-149.92 405.69,-140.37 396.15,-144.97 401.1,-149.92"/>
<text text-anchor="middle" x="381.09" y="-169.2" font-family="Helvetica,Arial,sans-serif" font-size="14.00">:</text>
</g>
<!-- 6 -->
<g id="node8" class="node">
<title>6</title>
<ellipse fill="none" stroke="black" cx="551.78" cy="-18" rx="18" ry="18"/>
<text text-anchor="middle" x="551.78" y="-13.8" font-family="Helvetica,Arial,sans-serif" font-size="14.00">6</text>
</g>
<!-- 5&#45;&gt;6 -->
<g id="edge8" class="edge">
<title>5-&gt;6</title>
<path fill="none" stroke="black" d="M424.26,-110.51C429.09,-93.94 438.57,-69.39 455.04,-54.2 474.26,-36.48 503.02,-27.17 524,-22.46"/>
<polygon fill="black" stroke="black" points="524.78,-25.87 533.88,-20.44 523.38,-19.01 524.78,-25.87"/>
<text text-anchor="middle" x="458.4" y="-59.2" font-family="Helvetica,Arial,sans-serif" font-size="14.00">"</text>
</g>
<!-- A -->
<g id="node10" class="node">
<title>A</title>
<ellipse fill="none" stroke="black" cx="497.77" cy="-171" rx="18.02" ry="18.02"/>
<text text-anchor="middle" x="497.77" y="-166.8" font-family="Helvetica,Arial,sans-serif" font-size="14.00">A</text>
</g>
<!-- 5&#45;&gt;A -->
<g id="edge13" class="edge">
<title>5-&gt;A</title>
<path fill="none" stroke="black" d="M435.2,-136.5C445.92,-142.5 460.51,-150.68 472.8,-157.57"/>
<polygon fill="black" stroke="black" points="471.21,-160.69 481.64,-162.52 474.63,-154.58 471.21,-160.69"/>
<text text-anchor="middle" x="458.4" y="-155.2" font-family="Helvetica,Arial,sans-serif" font-size="14.00">{</text>
</g>
<!-- x1 -->
<g id="node15" class="node">
<title>x1</title>
<ellipse fill="none" stroke="black" cx="843.65" cy="-102" rx="20.89" ry="20.89"/>
<text text-anchor="middle" x="843.65" y="-97.8" font-family="Helvetica,Arial,sans-serif" font-size="14.00">x1</text>
</g>
<!-- 5&#45;&gt;x1 -->
<g id="edge27" class="edge">
<title>5-&gt;x1</title>
<path fill="none" stroke="black" d="M432.42,-115.79C446.68,-103.08 471.42,-85 496.77,-85 496.77,-85 496.77,-85 764.23,-85 780.93,-85 799.19,-88.73 813.88,-92.69"/>
<polygon fill="black" stroke="black" points="813.3,-96.17 823.88,-95.57 815.24,-89.44 813.3,-96.17"/>
<text text-anchor="middle" x="645.14" y="-89.2" font-family="Helvetica,Arial,sans-serif" font-size="14.00">[</text>
</g>
<!-- 6&#45;&gt;6 -->
<g id="edge9" class="edge">
<title>6-&gt;6</title>
<path fill="none" stroke="black" d="M542.55,-33.54C539.95,-43.91 543.03,-54 551.78,-54 557.52,-54 560.82,-49.65 561.68,-43.74"/>
<polygon fill="black" stroke="black" points="565.16,-43.29 561.01,-33.54 558.17,-43.75 565.16,-43.29"/>
<text text-anchor="middle" x="551.78" y="-58.2" font-family="Helvetica,Arial,sans-serif" font-size="14.00">[a-z0-9]</text>
</g>
<!-- 7 -->
<g id="node9" class="node">
<title>7</title>
<ellipse fill="none" stroke="black" cx="1198.21" cy="-252" rx="18" ry="18"/>
<text text-anchor="middle" x="1198.21" y="-247.8" font-family="Helvetica,Arial,sans-serif" font-size="14.00">7</text>
</g>
<!-- 6&#45;&gt;7 -->
<g id="edge10" class="edge">
<title>6-&gt;7</title>
<path fill="none" stroke="black" d="M569.94,-19.2C588.3,-20.38 618.26,-22 644.14,-22 644.14,-22 644.14,-22 1120.49,-22 1162.58,-22 1185.73,-162.37 1193.85,-223.79"/>
<polygon fill="black" stroke="black" points="1190.41,-224.48 1195.15,-233.95 1197.35,-223.59 1190.41,-224.48"/>
<text text-anchor="middle" x="843.65" y="-26.2" font-family="Helvetica,Arial,sans-serif" font-size="14.00">"</text>
</g>
<!-- 7&#45;&gt;8 -->
<g id="edge12" class="edge">
<title>7-&gt;8</title>
<path fill="none" stroke="black" d="M1211.12,-264.69C1223.48,-277.86 1243.09,-298.75 1258.22,-314.86"/>
<polygon fill="black" stroke="black" points="1255.84,-317.44 1265.23,-322.34 1260.94,-312.65 1255.84,-317.44"/>
<text text-anchor="middle" x="1237.57" y="-299.2" font-family="Helvetica,Arial,sans-serif" font-size="14.00">}</text>
</g>
<!-- 7&#45;&gt;2 -->
<g id="edge11" class="edge">
<title>7-&gt;2</title>
<path fill="none" stroke="black" d="M1191.16,-268.58C1180.83,-293.57 1157.31,-338 1120.49,-338 264.43,-338 264.43,-338 264.43,-338 248.41,-338 230.47,-338 216.08,-338"/>
<polygon fill="black" stroke="black" points="215.86,-334.5 205.86,-338 215.86,-341.5 215.86,-334.5"/>
<text text-anchor="middle" x="684.5" y="-342.2" font-family="Helvetica,Arial,sans-serif" font-size="14.00">,</text>
</g>
<!-- A&#45;&gt;7 -->
<g id="edge15" class="edge">
<title>A-&gt;7</title>
<path fill="none" stroke="black" d="M504.49,-187.82C516.98,-221.07 550.04,-292 604.78,-292 604.78,-292 604.78,-292 724.86,-292 777.21,-292 790.3,-293 842.65,-293 842.65,-293 842.65,-293 1120.49,-293 1141.32,-293 1161.98,-281.1 1176.6,-270.12"/>
<polygon fill="black" stroke="black" points="1178.82,-272.82 1184.47,-263.86 1174.46,-267.35 1178.82,-272.82"/>
<text text-anchor="middle" x="843.65" y="-297.2" font-family="Helvetica,Arial,sans-serif" font-size="14.00">}</text>
</g>
<!-- B -->
<g id="node11" class="node">
<title>B</title>
<ellipse fill="none" stroke="black" cx="605.78" cy="-171" rx="18" ry="18"/>
<text text-anchor="middle" x="605.78" y="-166.8" font-family="Helvetica,Arial,sans-serif" font-size="14.00">B</text>
</g>
<!-- A&#45;&gt;B -->
<g id="edge14" class="edge">
<title>A-&gt;B</title>
<path fill="none" stroke="black" d="M515.8,-171C532.39,-171 557.89,-171 577.35,-171"/>
<polygon fill="black" stroke="black" points="577.44,-174.5 587.44,-171 577.44,-167.5 577.44,-174.5"/>
<text text-anchor="middle" x="551.78" y="-175.2" font-family="Helvetica,Arial,sans-serif" font-size="14.00">"</text>
</g>
<!-- B&#45;&gt;B -->
<g id="edge16" class="edge">
<title>B-&gt;B</title>
<path fill="none" stroke="black" d="M599.05,-188.04C597.67,-197.86 599.92,-207 605.78,-207 609.44,-207 611.7,-203.43 612.53,-198.35"/>
<polygon fill="black" stroke="black" points="616.03,-198.03 612.51,-188.04 609.03,-198.04 616.03,-198.03"/>
<text text-anchor="middle" x="605.78" y="-211.2" font-family="Helvetica,Arial,sans-serif" font-size="14.00">[a-z0-9]</text>
</g>
<!-- C -->
<g id="node12" class="node">
<title>C</title>
<ellipse fill="none" stroke="black" cx="684.5" cy="-171" rx="18" ry="18"/>
<text text-anchor="middle" x="684.5" y="-166.8" font-family="Helvetica,Arial,sans-serif" font-size="14.00">C</text>
</g>
<!-- B&#45;&gt;C -->
<g id="edge17" class="edge">
<title>B-&gt;C</title>
<path fill="none" stroke="black" d="M623.81,-171C633.28,-171 645.29,-171 656.05,-171"/>
<polygon fill="black" stroke="black" points="656.26,-174.5 666.26,-171 656.26,-167.5 656.26,-174.5"/>
<text text-anchor="middle" x="645.14" y="-175.2" font-family="Helvetica,Arial,sans-serif" font-size="14.00">"</text>
</g>
<!-- D -->
<g id="node13" class="node">
<title>D</title>
<ellipse fill="none" stroke="black" cx="763.23" cy="-162" rx="18.02" ry="18.02"/>
<text text-anchor="middle" x="763.23" y="-157.8" font-family="Helvetica,Arial,sans-serif" font-size="14.00">D</text>
</g>
<!-- C&#45;&gt;D -->
<g id="edge18" class="edge">
<title>C-&gt;D</title>
<path fill="none" stroke="black" d="M702.53,-169C712.06,-167.88 724.18,-166.46 735,-165.19"/>
<polygon fill="black" stroke="black" points="735.72,-168.63 745.25,-163.99 734.91,-161.68 735.72,-168.63"/>
<text text-anchor="middle" x="723.86" y="-171.2" font-family="Helvetica,Arial,sans-serif" font-size="14.00">:</text>
</g>
<!-- D&#45;&gt;A -->
<g id="edge19" class="edge">
<title>D-&gt;A</title>
<path fill="none" stroke="black" d="M746.3,-155.8C734.43,-151.54 717.71,-146.24 702.5,-144 652.06,-136.56 638.21,-136.52 587.78,-144 565.88,-147.25 541.91,-154.76 524.37,-161.04"/>
<polygon fill="black" stroke="black" points="523.01,-157.81 514.84,-164.55 525.44,-164.37 523.01,-157.81"/>
<text text-anchor="middle" x="645.14" y="-143.2" font-family="Helvetica,Arial,sans-serif" font-size="14.00">{</text>
</g>
<!-- E -->
<g id="node14" class="node">
<title>E</title>
<ellipse fill="none" stroke="black" cx="900.34" cy="-174" rx="18" ry="18"/>
<text text-anchor="middle" x="900.34" y="-169.8" font-family="Helvetica,Arial,sans-serif" font-size="14.00">E</text>
</g>
<!-- D&#45;&gt;E -->
<g id="edge20" class="edge">
<title>D-&gt;E</title>
<path fill="none" stroke="black" d="M781.34,-163.52C804.29,-165.56 845.26,-169.2 872.38,-171.61"/>
<polygon fill="black" stroke="black" points="872.1,-175.09 882.37,-172.49 872.72,-168.12 872.1,-175.09"/>
<text text-anchor="middle" x="802.1" y="-170.2" font-family="Helvetica,Arial,sans-serif" font-size="14.00">"</text>
</g>
<!-- E&#45;&gt;E -->
<g id="edge22" class="edge">
<title>E-&gt;E</title>
<path fill="none" stroke="black" d="M890.77,-189.54C888.07,-199.91 891.26,-210 900.34,-210 906.3,-210 909.72,-205.65 910.61,-199.74"/>
<polygon fill="black" stroke="black" points="914.09,-199.28 909.92,-189.54 907.1,-199.76 914.09,-199.28"/>
<text text-anchor="middle" x="900.34" y="-214.2" font-family="Helvetica,Arial,sans-serif" font-size="14.00">[a-z0-9]</text>
</g><g id="edge21" class="edge">
<title>D-&gt;x1</title>
<path fill="none" stroke="black" d="M776.35,-149.54C782.86,-143.14 791.19,-135.4 799.24,-129.2 804.6,-125.07 810.62,-120.99 816.42,-117.3"/>
<polygon fill="black" stroke="black" points="818.56,-120.09 825.23,-111.86 814.89,-114.13 818.56,-120.09"/>
<text text-anchor="middle" x="802.1" y="-134.2" font-family="Helvetica,Arial,sans-serif" font-size="14.00">[</text>
</g>
<!-- F -->
<g id="node16" class="node">
<title>F</title>
<ellipse fill="none" stroke="black" cx="1119.49" cy="-211" rx="18" ry="18"/>
<text text-anchor="middle" x="1119.49" y="-206.8" font-family="Helvetica,Arial,sans-serif" font-size="14.00">F</text>
</g>
<!-- E&#45;&gt;F -->
<g id="edge23" class="edge">
<title>E-&gt;F</title>
<path fill="none" stroke="black" d="M916.63,-182.25C922.62,-185.14 929.65,-188.13 936.34,-190 989.84,-204.91 1055.01,-209.25 1091.1,-210.5"/>
<polygon fill="black" stroke="black" points="1091.23,-214.01 1101.33,-210.8 1091.43,-207.01 1091.23,-214.01"/>
<text text-anchor="middle" x="998.59" y="-207.2" font-family="Helvetica,Arial,sans-serif" font-size="14.00">"</text>
</g>
<!-- F&#45;&gt;7 -->
<g id="edge26" class="edge">
<title>F-&gt;7</title>
<path fill="none" stroke="black" d="M1135.65,-219.1C1146.37,-224.83 1160.96,-232.62 1173.24,-239.19"/>
<polygon fill="black" stroke="black" points="1171.62,-242.29 1182.09,-243.92 1174.92,-236.12 1171.62,-242.29"/>
<text text-anchor="middle" x="1158.85" y="-237.2" font-family="Helvetica,Arial,sans-serif" font-size="14.00">}</text>
</g>
<!-- F&#45;&gt;A -->
<g id="edge24" class="edge">
<title>F-&gt;A</title>
<path fill="none" stroke="black" d="M1104.84,-221.8C1090.04,-232.41 1065.28,-247 1041.14,-247 842.65,-247 842.65,-247 842.65,-247 729.18,-247 695.14,-268.75 587.78,-232 561.58,-223.03 535.96,-204.08 518.99,-189.67"/>
<polygon fill="black" stroke="black" points="521.22,-186.97 511.38,-183.02 516.61,-192.24 521.22,-186.97"/>
<text text-anchor="middle" x="802.1" y="-252.2" font-family="Helvetica,Arial,sans-serif" font-size="14.00">,</text>
</g>
<!-- F&#45;&gt;F -->
<g id="edge25" class="edge">
<title>F-&gt;F</title>
<path fill="none" stroke="black" d="M1112.76,-228.04C1111.38,-237.86 1113.63,-247 1119.49,-247 1123.16,-247 1125.41,-243.43 1126.25,-238.35"/>
<polygon fill="black" stroke="black" points="1129.74,-238.03 1126.23,-228.04 1122.74,-238.04 1129.74,-238.03"/>
<text text-anchor="middle" x="1119.49" y="-251.2" font-family="Helvetica,Arial,sans-serif" font-size="14.00">}</text>
</g>
<!-- x2 -->
<g id="node17" class="node">
<title>x2</title>
<ellipse fill="none" stroke="black" cx="957.04" cy="-126" rx="20.89" ry="20.89"/>
<text text-anchor="middle" x="957.04" y="-121.8" font-family="Helvetica,Arial,sans-serif" font-size="14.00">x2</text>
</g>
<!-- x1&#45;&gt;x2 -->
<g id="edge28" class="edge">
<title>x1-&gt;x2</title>
<path fill="none" stroke="black" d="M864.05,-106.18C881.27,-109.89 906.7,-115.37 926.46,-119.63"/>
<polygon fill="black" stroke="black" points="925.97,-123.1 936.48,-121.79 927.44,-116.26 925.97,-123.1"/>
<text text-anchor="middle" x="900.34" y="-122.2" font-family="Helvetica,Arial,sans-serif" font-size="14.00">"</text>
</g>
<!-- x2&#45;&gt;x2 -->
<g id="edge29" class="edge">
<title>x2-&gt;x2</title>
<path fill="none" stroke="black" d="M949.8,-145.51C948.69,-155.6 951.1,-164.69 957.04,-164.69 960.84,-164.69 963.2,-160.96 964.11,-155.63"/>
<polygon fill="black" stroke="black" points="967.61,-155.57 964.27,-145.51 960.61,-155.45 967.61,-155.57"/>
<text text-anchor="middle" x="957.04" y="-168.89" font-family="Helvetica,Arial,sans-serif" font-size="14.00">[a-z0-9]</text>
</g>
<!-- x3 -->
<g id="node18" class="node">
<title>x3</title>
<ellipse fill="none" stroke="black" cx="1040.14" cy="-136" rx="20.89" ry="20.89"/>
<text text-anchor="middle" x="1040.14" y="-131.8" font-family="Helvetica,Arial,sans-serif" font-size="14.00">x3</text>
</g>
<!-- x2&#45;&gt;x3 -->
<g id="edge30" class="edge">
<title>x2-&gt;x3</title>
<path fill="none" stroke="black" d="M977.67,-128.42C987.16,-129.59 998.76,-131.02 1009.31,-132.32"/>
<polygon fill="black" stroke="black" points="1009.05,-135.82 1019.4,-133.57 1009.91,-128.87 1009.05,-135.82"/>
<text text-anchor="middle" x="998.59" y="-136.2" font-family="Helvetica,Arial,sans-serif" font-size="14.00">"</text>
</g>
<!-- x3&#45;&gt;7 -->

<!-- x3&#45;&gt;x1 -->
<!-- x3&#45;&gt;x1 -->
<g id="edge31" class="edge">
<title>x3-&gt;x1</title>
<path fill="none" stroke="black" d="M1027.14,-119.48C1016.08,-105.76 998.28,-87.25 977.73,-79.2 942.74,-65.5 899.38,-77.9 871.86,-89.08"/>
<polygon fill="black" stroke="black" points="870.3,-85.94 862.48,-93.1 873.05,-92.38 870.3,-85.94"/>
<text text-anchor="middle" x="957.04" y="-84.2" font-family="Helvetica,Arial,sans-serif" font-size="14.00">,</text>
</g><g id="edge32" class="edge">
<title>x3-&gt;7</title>
<path fill="none" stroke="black" d="M1060.91,-138.63C1081.67,-142.2 1114.42,-150.19 1137.49,-167.2 1158.57,-182.74 1174.97,-207.99 1185.21,-226.9"/>
<polygon fill="black" stroke="black" points="1182.15,-228.61 1189.86,-235.87 1188.36,-225.38 1182.15,-228.61"/>
<text text-anchor="middle" x="1119.49" y="-172.2" font-family="Helvetica,Arial,sans-serif" font-size="14.00">]</text>
</g>

<!-- x3&#45;&gt;F -->
<g id="edge33" class="edge">
<title>x3-&gt;F</title>
<path fill="none" stroke="black" d="M1055.69,-150.11C1067.83,-161.88 1085.27,-178.78 1098.68,-191.79"/>
<polygon fill="black" stroke="black" points="1096.43,-194.49 1106.05,-198.94 1101.31,-189.46 1096.43,-194.49"/>
<text text-anchor="middle" x="1081.16" y="-180.2" font-family="Helvetica,Arial,sans-serif" font-size="14.00" style="">]</text>
</g>
</g>
</svg>